ffmpeg started on 2016-11-25 at 09:07:59
Report written to "Output/NVENCh264/results/ffmpeg/crowd_run_2160p50hq10000k.log"
Command line:
Tools/ffmpeg/ffmpeg -benchmark -y -i Input/y4m/crowd_run_2160p50.y4m -c:v h264_nvenc -preset hq -b:v 10000k -an Output/NVENCh264/encoded/crowd_run_2160p50hq10000k.mkv
ffmpeg version N-82227-gdb23fde Copyright (c) 2000-2016 the FFmpeg developers
  built with gcc 5.4.0 (Ubuntu 5.4.0-6ubuntu1~16.04.2) 20160609
  configuration: --prefix=/home/jaroslav/ffmpeg_build --pkg-config-flags=--static --extra-cflags=-I/home/jaroslav/ffmpeg_build/include --extra-ldflags=-L/home/jaroslav/ffmpeg_build/lib --bindir=/home/jaroslav/bin --enable-gpl --enable-libass --enable-libfdk-aac --enable-libfreetype --enable-libmp3lame --enable-libopus --enable-libtheora --enable-libvorbis --enable-libvpx --enable-libx264 --enable-libx265 --enable-nvenc --enable-libmfx --enable-libxvid --enable-libgsm --enable-libopencore-amrnb --enable-version3 --enable-nonfree
  libavutil      55. 35.100 / 55. 35.100
  libavcodec     57. 66.101 / 57. 66.101
  libavformat    57. 57.100 / 57. 57.100
  libavdevice    57.  2.100 / 57.  2.100
  libavfilter     6. 66.100 /  6. 66.100
  libswscale      4.  3.100 /  4.  3.100
  libswresample   2.  4.100 /  2.  4.100
  libpostproc    54.  2.100 / 54.  2.100
Input #0, yuv4mpegpipe, from 'Input/y4m/crowd_run_2160p50.y4m':
  Duration: 00:00:10.00, start: 0.000000, bitrate: 4976642 kb/s
    Stream #0:0: Video: rawvideo (I420 / 0x30323449), yuv420p(progressive), 3840x2160, SAR 1:1 DAR 16:9, 50 fps, 50 tbr, 50 tbn, 50 tbc
Output #0, matroska, to 'Output/NVENCh264/encoded/crowd_run_2160p50hq10000k.mkv':
  Metadata:
    encoder         : Lavf57.57.100
    Stream #0:0: Video: h264 (h264_nvenc) (Main) (H264 / 0x34363248), yuv420p, 3840x2160 [SAR 1:1 DAR 16:9], q=-1--1, 10000 kb/s, 50 fps, 1k tbn, 50 tbc
    Metadata:
      encoder         : Lavc57.66.101 h264_nvenc
    Side data:
      cpb: bitrate max/min/avg: 0/0/10000000 buffer size: 20000000 vbv_delay: -1
Stream mapping:
  Stream #0:0 -> #0:0 (rawvideo (native) -> h264 (h264_nvenc))
Press [q] to stop, [?] for help
frame=   15 fps=0.0 q=0.0 size=       0kB time=00:00:00.00 bitrate=N/A speed=   0x    frame=   33 fps= 32 q=43.0 size=       1kB time=00:00:00.04 bitrate= 143.0kbits/s speed=0.0396x    frame=   51 fps= 33 q=42.0 size=       1kB time=00:00:00.40 bitrate=  14.6kbits/s speed=0.258x    frame=   69 fps= 33 q=42.0 size=       1kB time=00:00:00.76 bitrate=   7.7kbits/s speed=0.367x    frame=   87 fps= 33 q=43.0 size=       1kB time=00:00:01.12 bitrate=   5.2kbits/s speed=0.431x    frame=  105 fps= 34 q=42.0 size=       1kB time=00:00:01.48 bitrate=   4.0kbits/s speed=0.474x    frame=  123 fps= 34 q=43.0 size=       1kB time=00:00:01.84 bitrate=   3.2kbits/s speed=0.506x    frame=  141 fps= 34 q=43.0 size=       1kB time=00:00:02.20 bitrate=   2.7kbits/s speed=0.529x    frame=  143 fps= 18 q=42.0 size=       1kB time=00:00:02.24 bitrate=   2.6kbits/s speed=0.289x    frame=  144 fps= 12 q=42.0 size=       1kB time=00:00:02.26 bitrate=   2.6kbits/s speed=0.196x    frame=  158 fps= 13 q=43.0 size=       1kB time=00:00:02.54 bitrate=   2.3kbits/s speed=0.21x    frame=  175 fps= 14 q=43.0 size=       1kB time=00:00:02.88 bitrate=   2.0kbits/s speed=0.229x    frame=  192 fps= 15 q=43.0 size=       1kB time=00:00:03.22 bitrate=   1.8kbits/s speed=0.246x    frame=  209 fps= 15 q=43.0 size=       1kB time=00:00:03.56 bitrate=   1.6kbits/s speed=0.262x    frame=  227 fps= 16 q=43.0 size=       1kB time=00:00:03.92 bitrate=   1.5kbits/s speed=0.277x    frame=  244 fps= 17 q=43.0 size=    5141kB time=00:00:04.26 bitrate=9883.7kbits/s speed=0.291x    frame=  262 fps= 17 q=42.0 size=    5141kB time=00:00:04.62 bitrate=9113.7kbits/s speed=0.304x    frame=  280 fps= 18 q=42.0 size=    5141kB time=00:00:04.98 bitrate=8455.0kbits/s speed=0.317x    frame=  298 fps= 18 q=43.0 size=    6485kB time=00:00:05.34 bitrate=9946.8kbits/s speed=0.329x    frame=  316 fps= 19 q=43.0 size=    6485kB time=00:00:05.70 bitrate=9318.7kbits/s speed=0.341x    frame=  334 fps= 19 q=43.0 size=    6485kB time=00:00:06.06 bitrate=8765.2kbits/s speed=0.351x    frame=  352 fps= 20 q=43.0 size=    6485kB time=00:00:06.42 bitrate=8273.8kbits/s speed=0.361x    frame=  370 fps= 20 q=42.0 size=    6485kB time=00:00:06.78 bitrate=7834.5kbits/s speed=0.371x    frame=  388 fps= 21 q=43.0 size=    6485kB time=00:00:07.14 bitrate=7439.5kbits/s speed=0.379x    frame=  406 fps= 21 q=42.0 size=    6485kB time=00:00:07.50 bitrate=7082.5kbits/s speed=0.388x    frame=  424 fps= 21 q=43.0 size=    6485kB time=00:00:07.86 bitrate=6758.1kbits/s speed=0.396x    frame=  442 fps= 22 q=43.0 size=    6485kB time=00:00:08.22 bitrate=6462.2kbits/s speed=0.404x    frame=  460 fps= 22 q=43.0 size=    6485kB time=00:00:08.58 bitrate=6191.1kbits/s speed=0.411x    frame=  478 fps= 22 q=43.0 size=    6485kB time=00:00:08.94 bitrate=5941.8kbits/s speed=0.418x    frame=  496 fps= 23 q=43.0 size=   11619kB time=00:00:09.30 bitrate=10234.1kbits/s speed=0.424x    frame=  500 fps= 23 q=43.0 Lsize=   12756kB time=00:00:09.98 bitrate=10469.7kbits/s speed=0.452x    
video:12751kB audio:0kB subtitle:0kB other streams:0kB global headers:0kB muxing overhead: 0.037220%
bench: utime=1.188s
bench: maxrss=980512kB
